<?xml version="1.0" encoding="UTF-8" standalone="no"?><!DOCTYPE svg PUBLIC "-//W3C//DTD SVG 1.1//EN" "http://www.w3.org/Graphics/SVG/1.1/DTD/svg11.dtd"><svg width="100%" height="100%" viewBox="0 0 831 576" version="1.1" xmlns="http://www.w3.org/2000/svg" xmlns:xlink="http://www.w3.org/1999/xlink" xml:space="preserve" xmlns:serif="http://www.serif.com/" style="fill-rule:evenodd;clip-rule:evenodd;stroke-linecap:round;stroke-linejoin:round;stroke-miterlimit:1.5;"><g id="icon"><g><path d="M697.2,8.3c46,0 83.3,37.3 83.3,83.3c-0,134 -0,382.4 -0,382.4l-730.6,0l0,-382.4c0,-46 37.3,-83.3 83.3,-83.3c140.6,-0 423.4,-0 564,-0Z" style="fill:#943cc5;stroke:#311e44;stroke-width:16.7px;"/><path d="M822.3,474.1l0,51.1c-0,23 -18.7,41.7 -41.7,41.7c-139.7,-0 -590.9,-0 -730.6,-0c-23,-0 -41.7,-18.7 -41.7,-41.7c-0,-24.6 -0,-51.1 -0,-51.1l813.9,0Z" style="fill:#943cc5;stroke:#311e44;stroke-width:16.7px;"/><path d="M740.5,109.1l0,264.2c0,31.9 -25.9,57.8 -57.8,57.8l-534.9,0c-31.9,0 -57.8,-25.9 -57.8,-57.8l0,-264.2c0,-31.9 25.9,-57.8 57.8,-57.8l534.9,0c31.9,0 57.8,25.9 57.8,57.8Z" style="fill:#fff;stroke:#311e44;stroke-width:16.7px;"/><path d="M559,474.1l-0,0c0,8.7 -3.4,17 -9.6,23.2c-6.1,6.1 -14.5,9.6 -23.2,9.6c-55.3,-0 -166.6,-0 -221.9,-0c-8.7,-0 -17,-3.4 -23.2,-9.6c-6.1,-6.1 -9.6,-14.5 -9.6,-23.2c-0,-0 -0,-0 -0,-0l287.4,0Z" style="fill:#943cc5;stroke:#311e44;stroke-width:16.7px;"/></g><g id="In"><rect x="191" y="96.7" width="57.5" height="289" style="fill:#311e44;"/><path d="M294.5,255.1c11.6,-47.7 54.6,-83.2 105.8,-83.2c51.2,0 94.3,35.5 105.8,83.2l0,130.6l-57.5,0l0,-130.6l0.9,0c-8.8,-18.3 -27.6,-31 -49.3,-31c-21.7,0 -40.4,12.6 -49.3,31l0.9,0l0,130.6l-57.5,0l0,-130.6Z" style="fill:#311e44;"/></g><path d="M609.6,164.9l-17.5,17.5l-21.7,-65.2l65.2,21.7l-17.5,17.5l23,23l-8.4,8.4l-23,-23Z" style="fill:#943cc5;"/></g></svg>